<?xml version="1.0" encoding="UTF-8"?>
<svg version="1.1" viewBox="0 0 1600 1600" xmlns="http://www.w3.org/2000/svg">
<path transform="translate(0)" d="m0 0h1600v1600h-1600z" fill="#0F0D0F"/>
<path transform="translate(785,287)" d="m0 0h35l25 1 25 3 29 5 31 7 28 8 31 11 34 15 25 13 27 16 14 10 6 7 4 11-1 13-6 11-35 35-5 6-8 7-74 74-10 6-7 2h-7l-11-3-25-11-28-10-19-5-36-6-14-1h-24l-24 2-38 7-36 12-20 9-23 13-16 11-13 10-13 11-22 22-9 11-10 13-11 17-8 14-12 25-9 25-6 23-5 29-2 23v21l1 17 7 39 7 25 9 24 11 23v19l-5 10-12 14-10 10-8 7-92 92-9 6-8 2h-11l-10-4-6-5-7-10-15-25-10-18-14-29-13-32-11-34-8-32-6-33-3-25-1-16v-76l3-31 6-34 8-33 12-36 9-24 13-28 13-25 10-17 7-11 16-23 14-18 12-14 9-10 7-8 29-29 11-9 14-12 19-14 17-12 21-13 16-9 23-12 24-11 23-9 20-7 25-7 31-7 37-6 21-2z" fill="#84848F"/>
<path transform="translate(645,1055)" d="m0 0h14l13 5 14 7 24 9 22 6 17 4 28 3 27 1 32-2 19-3 29-7 24-9 18-8 16-6h13l12 5 7 7 6 5 7 8 5 4 4 4v2l4 2 6 7 5 5 5 4v2l4 2 4 4v2l4 2 7 8 5 4v2l4 2 5 6 7 6 6 7 5 5 5 4 5 6 7 6 7 8 6 9 2 7-1 13-5 10-8 7-19 12-19 11-23 12-24 11-23 9-33 11-32 8-26 5-21 3-40 4h-51l-49-5-23-4-24-5-28-8-27-9-20-8-25-11-24-12-27-16-12-8-8-7-5-10-1-10 2-11 7-10 68-68h2l2-4 4-4h2l2-4 4-4h2l2-4 31-31 10-6z" fill="#F5F6F7"/>
<path transform="translate(789,642)" d="m0 0h23l27 4 21 7 19 9 12 8 12 9 13 12 9 10 8 11 8 13 11 23 6 22 2 10 1 10v25l-3 19-5 19-6 15-8 16-7 11-9 12-10 11h-2v2l-11 9-11 8-15 9-16 7-18 6-25 4h-31l-21-3-24-8-16-8-15-9-10-8-10-9-12-12-12-17-9-16-9-22-6-26-1-7v-32l5-23 4-15 8-18 6-11 8-11 7-9 11-12 12-11 15-10 14-8 11-5 17-6 16-3z" fill="#F5F6F7"/>
<path transform="translate(785,287)" d="m0 0h35l25 1 25 3 29 5 31 7 28 8 31 11 34 15 25 13 27 16 14 10 5 8 1 4-5-2-3-3v-2l-5-1v-2l-5-2-8-5-3-1v-2l-4-1-9-5-10-5-5-2-9-4v-2l-6-1-10-5-7-3-10-4-11-5-20-7-11-3-8-3-9-2-16-5-21-5-23-4-19-3-28-2h-57l-6 1h-8l-2 1h-13l-8 1h-8v2l-3 1-11 1-11 2-15 3-18 5-12 3-10 4-5 1-11 5-7 2h-4v2l-9 3-10 4-14 6-10 5h-4v2l-10 5-8 3-10 5h-2v2l-9 5-12 7-5 4-14 9-10 7-5 4h-2v2l-6 4-11 9-10 8-6 5h-2l-1 3-6 5-6 7-8 7-4 5h-2l-2 4h-2l-2 4h-2l-1 3-5 5-5 6h-2v2h-2v3h-2v2h-2v2h-2l-1 4-4 4-1 3-3 3-8 10-5 5-1-3 12-17 14-18 12-14 9-10 7-8 29-29 11-9 14-12 19-14 17-12 21-13 16-9 23-12 24-11 23-9 20-7 25-7 31-7 37-6 21-2z" fill="#9E9FA8"/>
<path transform="translate(373,518)" d="m0 0v3l-8 12-8 14-10 18-8 16-7 15-11 27-2 5h-1l1-9 9-22 11-24 13-25 10-17 4-6 5-5z" fill="#9596A0"/>
<path transform="translate(330,592)" d="m0 0 2 4-11 27-2 5h-1l1-9 9-22z" fill="#9596A0"/>
<path transform="translate(340,574)" d="m0 0 1 4-3 4-3 7-2 5h-2l1-6 6-13z" fill="#9797A1"/>
<path transform="translate(348,560)" d="m0 0 1 2-6 11-4 2 2-6 3-6z" fill="#999AA3"/>
<path transform="translate(373,518)" d="m0 0v3l-8 12-3 1 1-4 3-5 5-5z" fill="#9A9BA4"/>
<path transform="translate(352,552)" d="m0 0 1 2-3 6-5 3 2-5 2-4z" fill="#9697A1"/>
<path transform="translate(330,592)" d="m0 0 2 4-3 7-3 1 1-5z" fill="#93939D"/>
</svg>
